<svg width="125" height="44.00000000000001" xmlns="http://www.w3.org/2000/svg">

 <g>
  <title>background</title>
  <rect fill="none" id="canvas_background" height="46" width="127" y="-1" x="-1"/>
 </g>
 <g>
  <title>Layer 1</title>
  <path id="svg_5" d="m99.97677,34.13285l0,-24.25467l8.79958,0q13.25303,0 13.25303,11.8137q0,5.64548 -3.64861,9.04323q-3.59495,3.39775 -9.65808,3.39775l-8.79958,0l0.05366,0zm5.58022,-19.81147l0,15.36826l2.79011,0q3.64861,0 5.68754,-2.14319q2.09258,-2.14319 2.09258,-5.8023q0,-3.45002 -2.03893,-5.43639q-2.03893,-1.98637 -5.74119,-1.98637l-2.73646,0l-0.05366,0z" fill="#FCDB05"/>
  <path id="svg_6" d="m95.73984,34.13285l-5.52657,0l0,-14.53189q0,-2.35228 0.21462,-5.17503l-0.16097,0q-0.42925,2.24774 -0.80484,3.18865l-5.8485,16.466l-4.56076,0l-5.95582,-16.30918q-0.26828,-0.67955 -0.80484,-3.39774l-0.16097,0q0.21462,3.60684 0.21462,6.27276l0,13.43416l-5.04366,0l0,-24.25467l8.20937,0l5.09732,14.37508q0.59022,1.72501 0.8585,3.45002l0.10731,0q0.4829,-1.98637 0.96581,-3.50229l5.09732,-14.3228l7.99474,0l0,24.25467l0.10731,0.05227z" fill="#ffde05"/>
  <g transform="matrix(0.53656,0,0,0.52273,46.09,-512.12) " id="svg_7" fill="#ffde05">
   <path id="svg_8" d="m9.84626,1018.2q-2.5,0 -4.2,-1.5q-1.7,-1.6 -1.7,-3.8q0,-2.3 1.7,-3.8t4.3,-1.5q2.6,0 4.3,1.5q1.7,1.5 1.7,3.8q0,2.4 -1.7,3.8q-1.7,1.5 -4.4,1.5zm0,23.7q-2.5,0 -4.2,-1.6q-1.7,-1.6 -1.7,-3.8q0,-2.3 1.7,-3.8t4.3,-1.5q2.6,0 4.3,1.5q1.7,1.5 1.7,3.8q0,2.4 -1.7,3.9t-4.4,1.5z"/>
   <path id="svg_9" d="m25.84626,1018.2q-2.5,0 -4.2,-1.5q-1.7,-1.6 -1.7,-3.8q0,-2.3 1.7,-3.8t4.3,-1.5q2.6,0 4.3,1.5q1.7,1.5 1.7,3.8q0,2.4 -1.7,3.8q-1.7,1.5 -4.4,1.5zm0,23.7q-2.5,0 -4.2,-1.6q-1.7,-1.6 -1.7,-3.8q0,-2.3 1.7,-3.8t4.3,-1.5q2.6,0 4.3,1.5q1.7,1.5 1.7,3.8q0,2.4 -1.7,3.9t-4.4,1.5z"/>
  </g>
  <path id="svg_10" d="m32.50811,34.55103q-5.3656,0 -8.69227,-3.39774q-3.38033,-3.39774 -3.38033,-8.83414q0,-5.75003 3.43398,-9.30459q3.43398,-3.55456 9.06786,-3.55456q5.31194,0 8.58496,3.39774t3.27302,8.93868q0,5.69776 -3.43398,9.20005q-3.38033,3.50229 -8.9069,3.50229l0.05366,0.05227zm0.26828,-20.38647q-2.95108,0 -4.66807,2.14319q-1.71699,2.14319 -1.71699,5.69776q0,3.60684 1.71699,5.69776t4.56076,2.09092q2.89742,0 4.61442,-2.03865q1.71699,-2.03865 1.71699,-5.64548q0,-3.76366 -1.66334,-5.85458q-1.66334,-2.09092 -4.5071,-2.09092l-0.05366,0z" fill="#aaa"/>
  <path id="svg_11" d="m18.00314,24.51462q0,4.86139 -2.30721,7.47504q-2.30721,2.56138 -6.707,2.56138q-1.98527,0 -3.64861,-0.67955l0,-5.12275q1.44871,1.04546 3.21936,1.04546q3.80958,0 3.80958,-5.54094l0,-14.42735l5.63388,0l0,14.63644l0,0.05227z" fill="#aaa"/>
 </g>
</svg>